<svg xmlns="http://www.w3.org/2000/svg" viewBox="0 0 100 100">
  <circle cx="50" cy="50" r="25" fill="#FFD700" />
  <circle cx="50" cy="50" r="15" fill="#8B4513" />
  <g fill="#FFD700">
    <path d="M50 10 L55 25 L45 25 Z" />
    <path d="M50 90 L55 75 L45 75 Z" />
    <path d="M10 50 L25 55 L25 45 Z" />
    <path d="M90 50 L75 55 L75 45 Z" />
    <path d="M24 24 L35 35 L30 30 Z" />
    <path d="M76 76 L65 65 L70 70 Z" />
    <path d="M24 76 L35 65 L30 70 Z" />
    <path d="M76 24 L65 35 L70 30 Z" />
  </g>
  <path d="M50 60 C40 70, 60 70, 50 60" fill="none" stroke="#006400" stroke-width="2" />
  <rect x="48" y="60" width="4" height="30" fill="#006400" />
</svg>